<mxfile host="app.diagrams.net" agent="Mozilla/5.0 (Macintosh; Intel Mac OS X 10_15_7) AppleWebKit/537.36 (KHTML, like Gecko) Chrome/133.0.0.0 Safari/537.36" version="26.1.0">
  <diagram id="C5RBs43oDa-KdzZeNtuy" name="Page-1">
    <mxGraphModel dx="1306" dy="859" grid="1" gridSize="10" guides="1" tooltips="1" connect="1" arrows="1" fold="1" page="1" pageScale="1" pageWidth="827" pageHeight="1169" math="0" shadow="0">
      <root>
        <mxCell id="WIyWlLk6GJQsqaUBKTNV-0" />
        <mxCell id="WIyWlLk6GJQsqaUBKTNV-1" parent="WIyWlLk6GJQsqaUBKTNV-0" />
        <mxCell id="s9ttmrP5mCmSrK_TO3er-5" style="edgeStyle=orthogonalEdgeStyle;rounded=0;orthogonalLoop=1;jettySize=auto;html=1;exitX=0.5;exitY=1;exitDx=0;exitDy=0;entryX=0.5;entryY=0;entryDx=0;entryDy=0;" edge="1" parent="WIyWlLk6GJQsqaUBKTNV-1" source="WIyWlLk6GJQsqaUBKTNV-6" target="s9ttmrP5mCmSrK_TO3er-0">
          <mxGeometry relative="1" as="geometry" />
        </mxCell>
        <mxCell id="s9ttmrP5mCmSrK_TO3er-6" value="" style="edgeStyle=orthogonalEdgeStyle;rounded=0;orthogonalLoop=1;jettySize=auto;html=1;" edge="1" parent="WIyWlLk6GJQsqaUBKTNV-1" source="WIyWlLk6GJQsqaUBKTNV-6" target="WIyWlLk6GJQsqaUBKTNV-7">
          <mxGeometry relative="1" as="geometry" />
        </mxCell>
        <mxCell id="WIyWlLk6GJQsqaUBKTNV-6" value="Scanned pdf?" style="rhombus;whiteSpace=wrap;html=1;shadow=0;fontFamily=Helvetica;fontSize=12;align=center;strokeWidth=1;spacing=6;spacingTop=-4;" parent="WIyWlLk6GJQsqaUBKTNV-1" vertex="1">
          <mxGeometry x="58" y="150" width="130" height="100" as="geometry" />
        </mxCell>
        <mxCell id="s9ttmrP5mCmSrK_TO3er-3" style="edgeStyle=orthogonalEdgeStyle;rounded=0;orthogonalLoop=1;jettySize=auto;html=1;exitX=0.5;exitY=1;exitDx=0;exitDy=0;entryX=0.5;entryY=0;entryDx=0;entryDy=0;" edge="1" parent="WIyWlLk6GJQsqaUBKTNV-1" source="WIyWlLk6GJQsqaUBKTNV-7" target="s9ttmrP5mCmSrK_TO3er-1">
          <mxGeometry relative="1" as="geometry" />
        </mxCell>
        <mxCell id="WIyWlLk6GJQsqaUBKTNV-7" value="Convert to images" style="rounded=1;whiteSpace=wrap;html=1;fontSize=12;glass=0;strokeWidth=1;shadow=0;" parent="WIyWlLk6GJQsqaUBKTNV-1" vertex="1">
          <mxGeometry x="223" y="180" width="120" height="40" as="geometry" />
        </mxCell>
        <mxCell id="s9ttmrP5mCmSrK_TO3er-2" style="edgeStyle=orthogonalEdgeStyle;rounded=0;orthogonalLoop=1;jettySize=auto;html=1;exitX=1;exitY=0.5;exitDx=0;exitDy=0;entryX=0;entryY=0.5;entryDx=0;entryDy=0;" edge="1" parent="WIyWlLk6GJQsqaUBKTNV-1" source="s9ttmrP5mCmSrK_TO3er-0" target="s9ttmrP5mCmSrK_TO3er-1">
          <mxGeometry relative="1" as="geometry" />
        </mxCell>
        <mxCell id="s9ttmrP5mCmSrK_TO3er-0" value="Preprocess images" style="rounded=1;whiteSpace=wrap;html=1;" vertex="1" parent="WIyWlLk6GJQsqaUBKTNV-1">
          <mxGeometry x="63" y="290" width="120" height="60" as="geometry" />
        </mxCell>
        <mxCell id="s9ttmrP5mCmSrK_TO3er-10" value="" style="edgeStyle=orthogonalEdgeStyle;rounded=0;orthogonalLoop=1;jettySize=auto;html=1;" edge="1" parent="WIyWlLk6GJQsqaUBKTNV-1" source="s9ttmrP5mCmSrK_TO3er-1" target="s9ttmrP5mCmSrK_TO3er-9">
          <mxGeometry relative="1" as="geometry" />
        </mxCell>
        <mxCell id="s9ttmrP5mCmSrK_TO3er-1" value="Extraction using&amp;nbsp;&lt;div&gt;OCR&lt;/div&gt;" style="rounded=1;whiteSpace=wrap;html=1;" vertex="1" parent="WIyWlLk6GJQsqaUBKTNV-1">
          <mxGeometry x="223" y="290" width="120" height="60" as="geometry" />
        </mxCell>
        <mxCell id="s9ttmrP5mCmSrK_TO3er-7" value="Yes" style="text;html=1;align=center;verticalAlign=middle;resizable=0;points=[];autosize=1;strokeColor=none;fillColor=none;" vertex="1" parent="WIyWlLk6GJQsqaUBKTNV-1">
          <mxGeometry x="183" y="170" width="40" height="30" as="geometry" />
        </mxCell>
        <mxCell id="s9ttmrP5mCmSrK_TO3er-8" value="No" style="text;html=1;align=center;verticalAlign=middle;resizable=0;points=[];autosize=1;strokeColor=none;fillColor=none;" vertex="1" parent="WIyWlLk6GJQsqaUBKTNV-1">
          <mxGeometry x="83" y="250" width="40" height="30" as="geometry" />
        </mxCell>
        <mxCell id="s9ttmrP5mCmSrK_TO3er-13" value="" style="edgeStyle=orthogonalEdgeStyle;rounded=0;orthogonalLoop=1;jettySize=auto;html=1;" edge="1" parent="WIyWlLk6GJQsqaUBKTNV-1" source="s9ttmrP5mCmSrK_TO3er-9" target="s9ttmrP5mCmSrK_TO3er-11">
          <mxGeometry relative="1" as="geometry" />
        </mxCell>
        <mxCell id="s9ttmrP5mCmSrK_TO3er-9" value="Summarise" style="rounded=1;whiteSpace=wrap;html=1;" vertex="1" parent="WIyWlLk6GJQsqaUBKTNV-1">
          <mxGeometry x="393" y="290" width="120" height="60" as="geometry" />
        </mxCell>
        <mxCell id="s9ttmrP5mCmSrK_TO3er-19" value="" style="edgeStyle=orthogonalEdgeStyle;rounded=0;orthogonalLoop=1;jettySize=auto;html=1;" edge="1" parent="WIyWlLk6GJQsqaUBKTNV-1" source="s9ttmrP5mCmSrK_TO3er-11" target="s9ttmrP5mCmSrK_TO3er-16">
          <mxGeometry relative="1" as="geometry" />
        </mxCell>
        <mxCell id="s9ttmrP5mCmSrK_TO3er-11" value="Edit summaries" style="rounded=1;whiteSpace=wrap;html=1;" vertex="1" parent="WIyWlLk6GJQsqaUBKTNV-1">
          <mxGeometry x="560" y="290" width="120" height="60" as="geometry" />
        </mxCell>
        <mxCell id="s9ttmrP5mCmSrK_TO3er-15" value="" style="edgeStyle=orthogonalEdgeStyle;rounded=0;orthogonalLoop=1;jettySize=auto;html=1;" edge="1" parent="WIyWlLk6GJQsqaUBKTNV-1" source="s9ttmrP5mCmSrK_TO3er-14" target="WIyWlLk6GJQsqaUBKTNV-6">
          <mxGeometry relative="1" as="geometry" />
        </mxCell>
        <mxCell id="s9ttmrP5mCmSrK_TO3er-14" value="Input PDF" style="ellipse;whiteSpace=wrap;html=1;" vertex="1" parent="WIyWlLk6GJQsqaUBKTNV-1">
          <mxGeometry x="63" y="30" width="120" height="80" as="geometry" />
        </mxCell>
        <mxCell id="s9ttmrP5mCmSrK_TO3er-16" value="Generate PDF" style="ellipse;whiteSpace=wrap;html=1;" vertex="1" parent="WIyWlLk6GJQsqaUBKTNV-1">
          <mxGeometry x="707" y="280" width="120" height="80" as="geometry" />
        </mxCell>
      </root>
    </mxGraphModel>
  </diagram>
</mxfile>
